<svg xmlns="http://www.w3.org/2000/svg" width="900" height="280" viewBox="0 0 900 280" role="img" aria-labelledby="title desc">
  <title id="title">CodeMind Brand Logo</title>
  <desc id="desc">CodeMind AI coding-agent platform brand banner with senary-structured brain and text.</desc>
  <defs>
    <linearGradient id="brainGrad" x1="0" y1="0" x2="1" y2="0">
      <stop offset="0" stop-color="#e91e8f"/>
      <stop offset="0.45" stop-color="#c471ed"/>
      <stop offset="1" stop-color="#39f6ff"/>
    </linearGradient>
    <linearGradient id="mindGrad" x1="0" y1="0" x2="1" y2="0">
      <stop offset="0" stop-color="#39f6ff"/>
      <stop offset="0.5" stop-color="#c471ed"/>
      <stop offset="1" stop-color="#e91e8f"/>
    </linearGradient>
    <linearGradient id="brainFillGrad" x1="0" y1="0" x2="1" y2="0">
      <stop offset="0" stop-color="#e91e8f"/>
      <stop offset="0.5" stop-color="#c471ed"/>
      <stop offset="1" stop-color="#39f6ff"/>
    </linearGradient>
    <clipPath id="brainClip">
      <path d="M148,195 C140,190 125,178 115,163 C105,148 98,130 97,114 C96,98 100,84 108,75 C114,68 122,64 130,64 C136,64 140,67 143,71 C145,67 147,64 148,63 C149,64 151,67 153,71 C156,67 160,64 166,64 C174,64 182,68 188,75 C196,84 200,98 199,114 C198,130 191,148 181,163 C171,178 156,190 148,195 Z"/>
    </clipPath>
    <clipPath id="mindClip">
      <text x="528" y="155" font-family="Arial,Helvetica,sans-serif" font-size="72" font-weight="800" letter-spacing="-1">Mind</text>
    </clipPath>
  </defs>

  <!-- Background -->
  <rect width="900" height="280" fill="#000000"/>

  <!-- ============ BRAIN ICON ============ -->

  <!-- Brain filled with senary digits -->
  <g clip-path="url(#brainClip)">
    <rect x="92" y="58" width="112" height="142" fill="#e91e8f" opacity="0.03"/>
    <text font-family="Courier New,Courier,monospace" font-size="6" fill="url(#brainFillGrad)" opacity="0.7">
      <tspan x="108" y="68">5 0 3 1 4 2</tspan>
      <tspan x="105" y="74">0 3 1 4 2 5 0</tspan>
      <tspan x="102" y="80">1 4 2 5 0 3 1 4</tspan>
      <tspan x="99" y="86">5 0 3 1 4 2 5 0 3</tspan>
      <tspan x="97" y="92">2 5 0 3 1 4 2 5 0 3</tspan>
      <tspan x="96" y="98">0 3 1 4 2 5 0 3 1 4 2</tspan>
      <tspan x="96" y="104">4 2 5 0 3 1 4 2 5 0 3</tspan>
      <tspan x="96" y="110">1 4 2 5 0 3 1 4 2 5 0</tspan>
      <tspan x="96" y="116">5 0 3 1 4 2 5 0 3 1 4</tspan>
      <tspan x="96" y="122">3 1 4 2 5 0 3 1 4 2 5</tspan>
      <tspan x="96" y="128">0 3 1 4 2 5 0 3 1 4 2</tspan>
      <tspan x="96" y="134">4 2 5 0 3 1 4 2 5 0 3</tspan>
      <tspan x="96" y="140">2 5 0 3 1 4 2 5 0 3 1</tspan>
      <tspan x="96" y="146">5 0 3 1 4 2 5 0 3 1 4</tspan>
      <tspan x="96" y="152">1 4 2 5 0 3 1 4 2 5 0</tspan>
      <tspan x="97" y="158">3 1 4 2 5 0 3 1 4 2</tspan>
      <tspan x="99" y="164">0 3 1 4 2 5 0 3 1</tspan>
      <tspan x="102" y="170">4 2 5 0 3 1 4 2</tspan>
      <tspan x="106" y="176">2 5 0 3 1 4 2</tspan>
      <tspan x="112" y="182">5 0 3 1 4 2</tspan>
      <tspan x="118" y="188">0 3 1 4 2</tspan>
      <tspan x="126" y="194">3 1 4</tspan>
    </text>
  </g>

  <!-- Brain outline -->
  <path d="M148,195 C140,190 125,178 115,163 C105,148 98,130 97,114 C96,98 100,84 108,75 C114,68 122,64 130,64 C136,64 140,67 143,71 C145,67 147,64 148,63 C149,64 151,67 153,71 C156,67 160,64 166,64 C174,64 182,68 188,75 C196,84 200,98 199,114 C198,130 191,148 181,163 C171,178 156,190 148,195 Z" fill="none" stroke="url(#brainGrad)" stroke-width="2"/>

  <!-- Center fissure -->
  <line x1="148" y1="66" x2="148" y2="192" stroke="url(#brainGrad)" stroke-width="0.6" opacity="0.4"/>

  <!-- Brain fold lines (sulci) -->
  <g stroke="url(#brainGrad)" stroke-width="0.5" opacity="0.25" fill="none">
    <path d="M104,95 C114,100 128,97 143,90"/>
    <path d="M100,115 C112,121 128,118 143,110"/>
    <path d="M102,135 C114,141 128,138 143,130"/>
    <path d="M108,155 C118,160 130,157 143,150"/>
    <path d="M153,90 C168,97 182,100 192,95"/>
    <path d="M153,110 C168,118 182,121 196,115"/>
    <path d="M153,130 C168,138 182,141 194,135"/>
    <path d="M153,150 C166,157 178,160 188,155"/>
  </g>

  <!-- "CM" text inside brain -->
  <text x="118" y="138" font-family="Arial,Helvetica,sans-serif" font-size="36" font-weight="900" fill="url(#brainGrad)" opacity="0.35">C</text>
  <text x="145" y="138" font-family="Arial,Helvetica,sans-serif" font-size="36" font-weight="900" fill="url(#brainGrad)" opacity="0.35">M</text>

  <!-- Circuit traces extending downward from brain -->
  <g stroke="url(#brainGrad)" stroke-width="1.5" fill="none" opacity="0.8">
    <!-- Left trace: down from brain, bends left -->
    <path d="M120,170 L120,225 L90,225"/>
    <!-- Center trace: straight down -->
    <path d="M148,195 L148,250"/>
    <!-- Right trace: down from brain, bends right -->
    <path d="M176,170 L176,225 L206,225"/>
  </g>

  <!-- Circuit trace nodes -->
  <g fill="url(#brainGrad)" opacity="0.9">
    <circle cx="120" cy="170" r="3"/>
    <circle cx="90" cy="225" r="3.5"/>
    <circle cx="148" cy="250" r="3.5"/>
    <circle cx="176" cy="170" r="3"/>
    <circle cx="206" cy="225" r="3.5"/>
  </g>

  <!-- Small accent nodes on brain surface -->
  <g fill="url(#brainGrad)" opacity="0.7">
    <circle cx="108" cy="95" r="2"/>
    <circle cx="188" cy="95" r="2"/>
    <circle cx="100" cy="130" r="2"/>
    <circle cx="196" cy="130" r="2"/>
    <circle cx="130" cy="75" r="2"/>
    <circle cx="166" cy="75" r="2"/>
  </g>

  <!-- Internal circuit traces on brain -->
  <g stroke="url(#brainGrad)" stroke-width="1" opacity="0.6">
    <line x1="130" y1="75" x2="130" y2="110"/>
    <line x1="130" y1="110" x2="108" y2="130"/>
    <line x1="166" y1="75" x2="166" y2="110"/>
    <line x1="166" y1="110" x2="188" y2="130"/>
  </g>

  <!-- ============ TEXT SECTION ============ -->

  <!-- "Code" in white -->
  <text x="300" y="155" font-family="Arial,Helvetica,sans-serif" font-size="72" font-weight="700" fill="#ffffff" letter-spacing="-1">Code</text>

  <!-- "Mind" in senary pattern (clipped to letter shapes) -->
  <g clip-path="url(#mindClip)">
    <text font-family="Courier New,Courier,monospace" font-size="7" fill="url(#mindGrad)">
      <tspan x="523" y="95">503142503142503142503142503142503142</tspan>
      <tspan x="523" y="101">142503142503142503142503142503142503</tspan>
      <tspan x="523" y="107">250314250314250314250314250314250314</tspan>
      <tspan x="523" y="113">031425031425031425031425031425031425</tspan>
      <tspan x="523" y="119">503142503142503142503142503142503142</tspan>
      <tspan x="523" y="125">142503142503142503142503142503142503</tspan>
      <tspan x="523" y="131">250314250314250314250314250314250314</tspan>
      <tspan x="523" y="137">031425031425031425031425031425031425</tspan>
      <tspan x="523" y="143">503142503142503142503142503142503142</tspan>
      <tspan x="523" y="149">142503142503142503142503142503142503</tspan>
      <tspan x="523" y="155">250314250314250314250314250314250314</tspan>
      <tspan x="523" y="161">031425031425031425031425031425031425</tspan>
    </text>
  </g>
</svg>
